<svg width="48" height="48" viewBox="0 0 48 48" fill="none" xmlns="http://www.w3.org/2000/svg">
<path fill-rule="evenodd" clip-rule="evenodd" d="M24 46.9787C36.6908 46.9787 46.9787 36.6908 46.9787 24C46.9787 11.3092 36.6908 1.02128 24 1.02128C11.3092 1.02128 1.02128 11.3092 1.02128 24C1.02128 36.6908 11.3092 46.9787 24 46.9787ZM24 48C37.2548 48 48 37.2548 48 24C48 10.7452 37.2548 0 24 0C10.7452 0 0 10.7452 0 24C0 37.2548 10.7452 48 24 48Z" fill="#B9C5E5"/>
<path fill-rule="evenodd" clip-rule="evenodd" d="M24 40.8511C33.3066 40.8511 40.8511 33.3066 40.8511 24C40.8511 14.6934 33.3066 7.14894 24 7.14894C14.6934 7.14894 7.14894 14.6934 7.14894 24C7.14894 33.3066 14.6934 40.8511 24 40.8511ZM19.4043 18.383C18.8402 18.383 18.383 18.8402 18.383 19.4043V28.5957C18.383 29.1598 18.8402 29.617 19.4043 29.617H28.5957C29.1598 29.617 29.617 29.1598 29.617 28.5957V19.4043C29.617 18.8402 29.1598 18.383 28.5957 18.383H19.4043Z" fill="#B9C5E5"/>
</svg>
