<svg xmlns="http://www.w3.org/2000/svg" width="26" height="39" viewBox="0 0 26 39" fill="none" style="height: 24px; width: auto;"><mask id="path-1-outside-1_5480_10304" maskUnits="userSpaceOnUse" x="-0.198242" y="-0.376954" width="26" height="39" fill="black"><rect fill="white" x="-0.198242" y="-0.376954" width="26" height="39"></rect><path d="M23.8018 25.1152C23.8018 29.7865 20.015 33.5731 15.3438 33.5732L14.4004 33.5732V35.2686C14.4001 36.2026 13.6431 36.96 12.709 36.96C11.775 36.9598 11.0178 36.2025 11.0176 35.2686V33.5732L7.95996 33.5732C4.46018 33.5732 1.62305 30.7361 1.62305 27.2363V11.3398C1.62305 7.84006 4.46018 5.00293 7.95996 5.00293L11.0176 5.00293V3.31445C11.0177 2.38038 11.7749 1.62319 12.709 1.62305C13.6432 1.62305 14.4003 2.38029 14.4004 3.31445V5.00293L15.3438 5.00293C20.0149 5.00304 23.8016 8.78976 23.8018 13.4609C23.8018 15.72 22.9147 17.771 21.4717 19.2881C22.9147 20.8052 23.8017 22.8562 23.8018 25.1152Z"></path></mask><path d="M23.8018 25.1152C23.8018 29.7865 20.015 33.5731 15.3438 33.5732L14.4004 33.5732V35.2686C14.4001 36.2026 13.6431 36.96 12.709 36.96C11.775 36.9598 11.0178 36.2025 11.0176 35.2686V33.5732L7.95996 33.5732C4.46018 33.5732 1.62305 30.7361 1.62305 27.2363V11.3398C1.62305 7.84006 4.46018 5.00293 7.95996 5.00293L11.0176 5.00293V3.31445C11.0177 2.38038 11.7749 1.62319 12.709 1.62305C13.6432 1.62305 14.4003 2.38029 14.4004 3.31445V5.00293L15.3438 5.00293C20.0149 5.00304 23.8016 8.78976 23.8018 13.4609C23.8018 15.72 22.9147 17.771 21.4717 19.2881C22.9147 20.8052 23.8017 22.8562 23.8018 25.1152Z" fill="#0046FF"></path><path d="M23.8018 25.1152L25.4244 25.1152V25.1152L23.8018 25.1152ZM15.3438 33.5732V35.1959L15.3438 35.1959L15.3438 33.5732ZM14.4004 33.5732V31.9506L12.7778 31.9506V33.5732L14.4004 33.5732ZM14.4004 35.2686L16.023 35.269V35.2686L14.4004 35.2686ZM12.709 36.96L12.7087 38.5826L12.709 38.5826V36.96ZM11.0176 35.2686L9.39494 35.2686V35.269L11.0176 35.2686ZM11.0176 33.5732L12.6402 33.5732V31.9506L11.0176 31.9506V33.5732ZM11.0176 5.00293V6.62556L12.6402 6.62557V5.00293L11.0176 5.00293ZM11.0176 3.31445L9.39494 3.31424V3.31445L11.0176 3.31445ZM12.709 1.62305V0.000410549L12.7087 0.000410549L12.709 1.62305ZM14.4004 3.31445L16.023 3.31445V3.31424L14.4004 3.31445ZM14.4004 5.00293L12.7778 5.00293V6.62557L14.4004 6.62557V5.00293ZM15.3438 5.00293L15.3438 3.38029L15.3438 3.38029V5.00293ZM23.8018 13.4609L25.4244 13.4609V13.4609L23.8018 13.4609ZM21.4717 19.2881L20.2959 18.1698L19.2322 19.2881L20.296 20.4064L21.4717 19.2881ZM23.8018 25.1152L22.1791 25.1152C22.1791 28.8903 19.1189 31.9505 15.3437 31.9506L15.3438 33.5732L15.3438 35.1959C20.9111 35.1957 25.4244 30.6827 25.4244 25.1152L23.8018 25.1152ZM15.3438 33.5732V31.9506L14.4004 31.9506V33.5732V35.1959L15.3438 35.1959V33.5732ZM14.4004 33.5732L12.7778 33.5732V35.2686L14.4004 35.2686L16.023 35.2686V33.5732L14.4004 33.5732ZM14.4004 35.2686L12.7778 35.2681C12.7777 35.3068 12.7465 35.3373 12.709 35.3373V36.96V38.5826C14.5397 38.5826 16.0225 37.0984 16.023 35.269L14.4004 35.2686ZM12.709 36.96L12.7092 35.3373C12.6714 35.3373 12.6402 35.3065 12.6402 35.2681L11.0176 35.2686L9.39494 35.269C9.39545 37.0986 10.8786 38.5823 12.7087 38.5826L12.709 36.96ZM11.0176 35.2686L12.6402 35.2686V33.5732L11.0176 33.5732L9.39494 33.5732V35.2686L11.0176 35.2686ZM11.0176 33.5732V31.9506L7.95996 31.9506V33.5732V35.1959L11.0176 35.1959V33.5732ZM7.95996 33.5732V31.9506C5.35634 31.9506 3.24568 29.8399 3.24568 27.2363L1.62305 27.2363L0.000411987 27.2363C0.000411987 31.6323 3.56402 35.1959 7.95996 35.1959V33.5732ZM1.62305 27.2363L3.24568 27.2363V11.3398L1.62305 11.3398L0.000411987 11.3398V27.2363L1.62305 27.2363ZM1.62305 11.3398L3.24568 11.3398C3.24568 8.73622 5.35634 6.62556 7.95996 6.62556V5.00293V3.38029C3.56402 3.38029 0.000411987 6.94391 0.000411987 11.3398L1.62305 11.3398ZM7.95996 5.00293V6.62556L11.0176 6.62556V5.00293V3.38029L7.95996 3.38029V5.00293ZM11.0176 5.00293L12.6402 5.00293V3.31445L11.0176 3.31445L9.39494 3.31445V5.00293L11.0176 5.00293ZM11.0176 3.31445L12.6402 3.31467C12.6402 3.27662 12.6711 3.24569 12.7092 3.24568L12.709 1.62305L12.7087 0.000410549C10.8787 0.000687511 9.39518 1.48415 9.39494 3.31424L11.0176 3.31445ZM12.709 1.62305V3.24568C12.7468 3.24568 12.7778 3.27629 12.7778 3.31467L14.4004 3.31445L16.023 3.31424C16.0228 1.4843 14.5395 0.000410629 12.709 0.000410549V1.62305ZM14.4004 3.31445L12.7778 3.31445V5.00293L14.4004 5.00293L16.023 5.00293V3.31445L14.4004 3.31445ZM14.4004 5.00293V6.62557L15.3438 6.62557V5.00293V3.38029L14.4004 3.38029V5.00293ZM15.3438 5.00293L15.3437 6.62557C19.1188 6.62565 22.179 9.68592 22.1791 13.461L23.8018 13.4609L25.4244 13.4609C25.4243 7.89359 20.9111 3.38042 15.3438 3.38029L15.3438 5.00293ZM23.8018 13.4609L22.1791 13.4609C22.1791 15.2863 21.4642 16.9415 20.2959 18.1698L21.4717 19.2881L22.6474 20.4064C24.3651 18.6005 25.4244 16.1536 25.4244 13.4609L23.8018 13.4609ZM21.4717 19.2881L20.296 20.4064C21.4642 21.6346 22.1791 23.2897 22.1791 25.1153L23.8018 25.1152L25.4244 25.1152C25.4243 22.4226 24.3652 19.9757 22.6474 18.1697L21.4717 19.2881Z" fill="white" mask="url(#path-1-outside-1_5480_10304)"></path><path d="M15.3418 10.2695C17.1065 10.2695 18.5371 11.7001 18.5371 13.4649C18.5371 15.2296 17.1065 16.6602 15.3418 16.6602L9.13915 16.6602C7.89347 16.6602 6.88364 15.6504 6.88364 14.4047V12.525C6.88364 11.2794 7.89347 10.2695 9.13915 10.2695L15.3418 10.2695Z" fill="black"></path><path d="M8.50672 14.4047L6.88367 14.4047V12.5251L8.50672 12.5251V14.4047ZM9.13914 15.0371L15.3418 15.0371C16.2101 15.0371 16.9141 14.3332 16.9141 13.4648C16.9141 12.5965 16.2101 11.8926 15.3418 11.8926L9.13914 11.8926C8.78984 11.8926 8.50672 12.1758 8.50672 12.5251L6.88367 12.5251L6.88438 12.4668C6.91478 11.2674 7.88151 10.3006 9.08094 10.2702L9.13914 10.2695L15.3418 10.2695C17.1065 10.2695 18.5371 11.7001 18.5371 13.4648C18.5371 15.2296 17.1065 16.6602 15.3418 16.6602L9.13914 16.6602L9.08094 16.6595C7.88151 16.6291 6.91477 15.6623 6.88438 14.4629L6.88367 14.4047L8.50672 14.4047C8.50673 14.754 8.78985 15.0371 9.13914 15.0371Z" fill="white"></path><path d="M15.3418 21.9219C17.1065 21.9219 18.5371 23.3525 18.5371 25.1172C18.5371 26.8819 17.1065 28.3125 15.3418 28.3125L9.13915 28.3125C7.89347 28.3125 6.88364 27.3027 6.88364 26.057V24.1774C6.88364 22.9317 7.89347 21.9219 9.13915 21.9219L15.3418 21.9219Z" fill="black"></path><path d="M8.50672 26.057L6.88367 26.057V24.1774L8.50672 24.1774V26.057ZM9.13914 26.6895L15.3418 26.6895C16.2101 26.6894 16.9141 25.9855 16.9141 25.1172C16.9141 24.2488 16.2101 23.5449 15.3418 23.5449L9.13914 23.5449C8.78984 23.5449 8.50672 23.8281 8.50672 24.1774L6.88367 24.1774L6.88438 24.1191C6.91478 22.9197 7.88151 21.953 9.08094 21.9226L9.13914 21.9219L15.3418 21.9219C17.1065 21.9219 18.5371 23.3525 18.5371 25.1172C18.5371 26.8819 17.1065 28.3125 15.3418 28.3125L9.13914 28.3125L9.08094 28.3118C7.88151 28.2814 6.91477 27.3147 6.88438 26.1152L6.88367 26.057L8.50672 26.057C8.50673 26.4063 8.78985 26.6894 9.13914 26.6895Z" fill="white"></path></svg>