<svg width="48" height="48" viewBox="0 0 48 48" fill="none" xmlns="http://www.w3.org/2000/svg">
<path fill-rule="evenodd" clip-rule="evenodd" d="M1.51779 21.345L3.64242 23.7699L3.33913 23.8568L0.0379817 33.9042L3.1115 44.1765L13.8878 41.2898L15.9747 42.9768L20.2245 45.8261H27.5099L31.7977 42.9768L33.8846 41.2898L44.6609 44.1765L47.7344 33.9042L44.3953 23.8568L44.398 23.8104L44.3574 23.8568L44.2967 23.8394L46.4822 21.345L45.5336 20.6701L47.0514 19.3205L45.8751 18.4582L47.3929 17.296L46.4063 16.5462L48 9.01068L45.6245 2.04396L45.6854 2L45.6179 2.02465L45.6095 2L45.5317 2.05609L30.2799 7.62354H17.4546L2.74015 2.25227L2.39051 2L2.35272 2.11085L2.04905 2L2.04155 2.02199L2.31559 2.21973L0 9.01068L1.59368 16.5462L0.56917 17.296L2.1249 18.4582L0.948617 19.3205L2.4664 20.6701L1.51779 21.345ZM1.54728 19.3485L3.07014 20.7026L2.0763 21.4096L3.84635 23.4298L13.4776 20.6695L20.0645 15.2168L2.58482 2.60443L0.392526 9.03377L2.01481 16.7046L1.20245 17.2991L2.75785 18.4611L1.54728 19.3485ZM47.6075 9.03377L45.9862 16.6999L46.772 17.2971L45.2472 18.4647L46.4527 19.3485L44.9299 20.7026L45.9237 21.4096L44.1537 23.4298L34.5224 20.6695L27.9355 15.2168L45.4152 2.60443L47.6075 9.03377ZM14.6087 29.7052L19.9589 31.2423L18.3652 28.0182L14.6087 29.7052ZM27.7376 31.2423L29.3313 28.0182L33.1257 29.7052L27.7376 31.2423ZM26.4854 37.5782L27.3961 38.178L27.9273 42.2645L27.4341 41.8896H20.2625L19.8072 42.2645L20.3005 38.178L21.2111 37.5782H26.4854Z" fill="#B9C5E5"/>
</svg>
