<svg width="138" height="138" viewBox="0 0 138 138" fill="none" xmlns="http://www.w3.org/2000/svg">
<mask id="path-1-inside-1_8408_87300" fill="white">
<path d="M108.715 91.7921C110.595 92.8818 111.249 95.3003 110.015 97.0894C103.281 106.851 93.2648 113.941 81.723 117.014C68.9086 120.426 55.2637 118.608 43.7899 111.959C32.3162 105.311 23.9534 94.3765 20.5414 81.5622C17.4682 70.0203 18.638 57.8046 23.7587 47.1085C24.6972 45.1481 27.1205 44.5125 29.0011 45.6022V45.6022C30.8817 46.6919 31.5043 49.0937 30.5947 51.0677C26.5043 59.9448 25.6114 70.0131 28.1473 79.537C31.0222 90.3341 38.0685 99.547 47.7361 105.149C57.4037 110.751 68.9007 112.283 79.6978 109.408C89.2216 106.872 97.5129 101.091 103.18 93.1274C104.441 91.3566 106.834 90.7024 108.715 91.7921V91.7921Z"/>
</mask>
<path d="M108.715 91.7921C110.595 92.8818 111.249 95.3003 110.015 97.0894C103.281 106.851 93.2648 113.941 81.723 117.014C68.9086 120.426 55.2637 118.608 43.7899 111.959C32.3162 105.311 23.9534 94.3765 20.5414 81.5622C17.4682 70.0203 18.638 57.8046 23.7587 47.1085C24.6972 45.1481 27.1205 44.5125 29.0011 45.6022V45.6022C30.8817 46.6919 31.5043 49.0937 30.5947 51.0677C26.5043 59.9448 25.6114 70.0131 28.1473 79.537C31.0222 90.3341 38.0685 99.547 47.7361 105.149C57.4037 110.751 68.9007 112.283 79.6978 109.408C89.2216 106.872 97.5129 101.091 103.18 93.1274C104.441 91.3566 106.834 90.7024 108.715 91.7921V91.7921Z" fill="#FFF8EA" stroke="#FFF8EA" stroke-width="2.50578" mask="url(#path-1-inside-1_8408_87300)"/>
<ellipse cx="53.4867" cy="33.2392" rx="16.2162" ry="16.2162" transform="rotate(30.0901 53.4867 33.2392)" fill="#FFF8EA" stroke="#FFF8EA" stroke-width="0.406343"/>
<ellipse cx="107.27" cy="64.4033" rx="16.2162" ry="16.2162" transform="rotate(30.0901 107.27 64.4033)" fill="#FFF8EA" stroke="#FFF8EA" stroke-width="0.406343"/>
</svg>
